# xmcd
#
# Track frame offsets:
#	150
#	18122
#	35577
#	53455
#	66402
#	92585
#	107685
#	126991
#	140935
#	157068
#	176453
#	192713
#	208285
#	224351
#	244439
#
# Disc length: 3529 seconds
#
# Revision: 1
# Processed by: cddbd v1.5.2PL0 Copyright (c) Steve Scherf et al.
# Submitted via: audiograbber 1.83.01
#
DISCID=ea0dc70f
DTITLE=Granger Smith - Remington
DYEAR=2016
DGENRE=Country
TTITLE0=Backroad Song
TTITLE1=Tonight
TTITLE2=Remington
TTITLE3=If the Boot Fits
TTITLE4=Tailgate Town
TTITLE5=Blue Collar Dollars
TTITLE6=Crazy As Me (feat. Brooke Eden
TTITLE7=Likin' Love Songs
TTITLE8=Tractor
TTITLE9=Echo
TTITLE10=Around the Sun
TTITLE11=5 More Minutes (GS Reloaded Bo
TTITLE12=Country Boy Love (EDJ Reloaded
TTITLE13=City Boy Stuck (feat. Earl Dib
TTITLE14=Merica (feat. Earl Dibbles Jr.
EXTD=
EXTT0=
EXTT1=
EXTT2=
EXTT3=
EXTT4=
EXTT5=
EXTT6=
EXTT7=
EXTT8=
EXTT9=
EXTT10=
EXTT11=
EXTT12=
EXTT13=
EXTT14=
PLAYORDER=
